# xmcd CD database file
# Copyright (C) 1993-1998 Ti Kan
# 
# Track frame offsets:
#     150
#     14085
#     33602
#     46750
#     61950
#     75857
#     89505
#     109010
#     125625
#     135732
# 
# Disc length: 2241 seconds
# 
# Revision: 1
# Processed by: cddbd v1.4b41PL1 Copyright (c) Steve Scherf et al.
# Submitted via: DiscPlay 4.0.4
# 
DISCID=8008bf0a
DTITLE=Kommilfoo - Neandertaal
DYEAR=1900
DGENRE=
TTITLE0=Cowboy In Eenzaamheid
TTITLE1=Beste Banaan
TTITLE2=Dalton Joe
TTITLE3=Elvis
TTITLE4=Jack The Ripper
TTITLE5=Salto Mortale
TTITLE6=Rubberlip En Haviknose
TTITLE7=Tarzan and Jane
TTITLE8=Jan De Maan
TTITLE9=Prinsesje
EXTD=
EXTT0=
EXTT1=
EXTT2=
EXTT3=
EXTT4=
EXTT5=
EXTT6=
EXTT7=
EXTT8=
EXTT9=
PLAYORDER=
